# Blender v2.93.0 OBJ File: '0_0.blend'
# www.blender.org
mtllib button.mtl
o st_button_base_Cylinder.017
v -0.258819 -0.102395 -0.965926
v -0.258819 0.106389 -0.965926
v 0.258819 -0.102395 -0.965926
v 0.258819 0.106389 -0.965926
v 0.707107 -0.102395 -0.707107
v 0.707107 0.106389 -0.707107
v 0.965926 -0.102395 -0.258819
v 0.965926 0.106389 -0.258819
v 0.965926 -0.102395 0.258819
v 0.965926 0.106389 0.258819
v 0.707107 -0.102395 0.707107
v 0.707107 0.106389 0.707107
v 0.258819 -0.102395 0.965926
v 0.258819 0.106389 0.965926
v -0.258819 -0.102395 0.965926
v -0.258819 0.106389 0.965926
v -0.707107 -0.102395 0.707107
v -0.707107 0.106389 0.707107
v -0.965926 -0.102395 0.258819
v -0.965926 0.106389 0.258819
v -0.965926 -0.102395 -0.258819
v -0.965926 0.106389 -0.258819
v -0.707107 -0.102395 -0.707107
v -0.707107 0.106389 -0.707107
vt 0.939394 0.437705
vt 0.998050 0.437705
vt 0.998050 0.583129
vt 0.939394 0.583129
vt 0.998050 0.728553
vt 0.939394 0.728553
vt 0.998050 0.873977
vt 0.939394 0.873977
vt 0.873977 0.939916
vt 0.873977 0.998571
vt 0.728553 0.998571
vt 0.728553 0.939916
vt 0.583129 0.998571
vt 0.583129 0.939916
vt 0.437705 0.998571
vt 0.437705 0.939916
vt 0.292280 0.998571
vt 0.292280 0.939916
vt 0.146856 0.998571
vt 0.146856 0.939916
vt 0.001432 0.998571
vt 0.001432 0.939916
vt 0.939394 0.001432
vt 0.998050 0.001432
vt 0.998050 0.146856
vt 0.939394 0.146856
vt 0.544156 0.200084
vt 0.471444 0.471449
vt 0.200079 0.544161
vt 0.998050 0.292280
vt 0.939394 0.292280
vt 0.074138 0.471449
vt 0.001426 0.345508
vt 0.001426 0.200084
vt 0.074138 0.074143
vt 0.200079 0.001431
vt 0.345503 0.001431
vt 0.471444 0.074143
vt 0.544156 0.345508
vt 0.345503 0.544161
vn -0.2588 0.0000 -0.9659
vn 0.2588 0.0000 -0.9659
vn 0.7071 0.0000 -0.7071
vn 0.9659 0.0000 -0.2588
vn 0.9659 0.0000 0.2588
vn 0.7071 0.0000 0.7071
vn 0.2588 0.0000 0.9659
vn -0.2588 0.0000 0.9659
vn -0.7071 0.0000 0.7071
vn -0.9659 0.0000 0.2588
vn -0.9659 0.0000 -0.2588
vn 0.0000 1.0000 0.0000
vn -0.7071 0.0000 -0.7071
usemtl None
s 1
f 1/1/1 2/2/1 4/3/2 3/4/2
f 3/4/2 4/3/2 6/5/3 5/6/3
f 5/6/3 6/5/3 8/7/4 7/8/4
f 7/9/4 8/10/4 10/11/5 9/12/5
f 9/12/5 10/11/5 12/13/6 11/14/6
f 11/14/6 12/13/6 14/15/7 13/16/7
f 13/16/7 14/15/7 16/17/8 15/18/8
f 15/18/8 16/17/8 18/19/9 17/20/9
f 17/20/9 18/19/9 20/21/10 19/22/10
f 19/23/10 20/24/10 22/25/11 21/26/11
f 14/27/12 10/28/12 6/29/12
f 21/26/11 22/25/11 24/30/13 23/31/13
f 23/31/13 24/30/13 2/2/1 1/1/1
f 6/29/12 4/32/12 2/33/12
f 2/33/12 24/34/12 22/35/12
f 22/35/12 20/36/12 14/27/12
f 20/36/12 18/37/12 14/27/12
f 18/37/12 16/38/12 14/27/12
f 14/27/12 12/39/12 10/28/12
f 10/28/12 8/40/12 6/29/12
f 6/29/12 2/33/12 14/27/12
f 2/33/12 22/35/12 14/27/12
o st_button_press_Cylinder.018
v -0.194714 -0.077034 -0.726684
v -0.194714 0.301136 -0.726684
v 0.194714 -0.077034 -0.726684
v 0.194714 0.301136 -0.726684
v 0.531970 -0.077034 -0.531970
v 0.531970 0.301136 -0.531970
v 0.726684 -0.077034 -0.194714
v 0.726684 0.301136 -0.194714
v 0.726684 -0.077034 0.194714
v 0.726684 0.301136 0.194714
v 0.531970 -0.077034 0.531970
v 0.531970 0.301136 0.531970
v 0.194714 -0.077034 0.726684
v 0.194714 0.301136 0.726684
v -0.194714 -0.077034 0.726684
v -0.194714 0.301136 0.726684
v -0.531970 -0.077034 0.531970
v -0.531970 0.301136 0.531970
v -0.726684 -0.077034 0.194714
v -0.726684 0.301136 0.194714
v -0.726684 -0.077034 -0.194714
v -0.726684 0.301136 -0.194714
v -0.531970 -0.077034 -0.531969
v -0.531970 0.301136 -0.531969
vt 0.329643 0.829498
vt 0.329643 0.935740
vt 0.220238 0.935740
vt 0.220238 0.829498
vt 0.110833 0.935740
vt 0.110833 0.829498
vt 0.001427 0.935740
vt 0.001427 0.829498
vt 0.830296 0.001427
vt 0.936538 0.001427
vt 0.936538 0.110833
vt 0.830296 0.110833
vt 0.936538 0.220238
vt 0.830296 0.220238
vt 0.936538 0.329643
vt 0.830296 0.329643
vt 0.936538 0.439049
vt 0.830296 0.439049
vt 0.936538 0.548454
vt 0.830296 0.548454
vt 0.936538 0.657860
vt 0.830296 0.657860
vt 0.657860 0.829498
vt 0.657860 0.935740
vt 0.548454 0.935740
vt 0.548454 0.829498
vt 0.772743 0.771917
vt 0.568592 0.826627
vt 0.419136 0.677182
vt 0.439049 0.935740
vt 0.439049 0.829498
vt 0.419132 0.567776
vt 0.473831 0.473027
vt 0.568577 0.418321
vt 0.677982 0.418317
vt 0.772732 0.473016
vt 0.827438 0.567762
vt 0.827442 0.677167
vt 0.677997 0.826623
vt 0.473842 0.771928
vn -0.2588 0.0000 -0.9659
vn 0.2588 0.0000 -0.9659
vn 0.7071 0.0000 -0.7071
vn 0.9659 0.0000 -0.2588
vn 0.9659 0.0000 0.2588
vn 0.7071 0.0000 0.7071
vn 0.2588 0.0000 0.9659
vn -0.2588 0.0000 0.9659
vn -0.7071 0.0000 0.7071
vn -0.9659 0.0000 0.2588
vn -0.9659 0.0000 -0.2588
vn 0.0000 1.0000 -0.0000
vn -0.7071 0.0000 -0.7071
usemtl None
s 1
f 25/41/14 26/42/14 28/43/15 27/44/15
f 27/44/15 28/43/15 30/45/16 29/46/16
f 29/46/16 30/45/16 32/47/17 31/48/17
f 31/49/17 32/50/17 34/51/18 33/52/18
f 33/52/18 34/51/18 36/53/19 35/54/19
f 35/54/19 36/53/19 38/55/20 37/56/20
f 37/56/20 38/55/20 40/57/21 39/58/21
f 39/58/21 40/57/21 42/59/22 41/60/22
f 41/60/22 42/59/22 44/61/23 43/62/23
f 43/63/23 44/64/23 46/65/24 45/66/24
f 38/67/25 34/68/25 30/69/25
f 45/66/24 46/65/24 48/70/26 47/71/26
f 47/71/26 48/70/26 26/42/14 25/41/14
f 30/69/25 28/72/25 26/73/25
f 26/73/25 48/74/25 46/75/25
f 46/75/25 44/76/25 38/67/25
f 44/76/25 42/77/25 38/67/25
f 42/77/25 40/78/25 38/67/25
f 38/67/25 36/79/25 34/68/25
f 34/68/25 32/80/25 30/69/25
f 30/69/25 26/73/25 38/67/25
f 26/73/25 46/75/25 38/67/25
