# Blender v2.93.0 OBJ File: '0_0.blend'
# www.blender.org
mtllib truba.mtl
o st_pipe_base_Cylinder.012
v 0.050000 0.049953 1.000000
v 0.073929 0.042275 1.000000
v 0.091822 0.024382 1.000000
v 0.100000 0.000000 1.000000
v 0.091822 -0.024501 1.000000
v 0.073929 -0.042394 1.000000
v 0.050000 -0.050044 1.000000
v 0.025000 -0.042334 1.000000
v 0.007000 -0.024442 1.000000
v 0.000000 0.000000 1.000000
v 0.007000 0.024442 1.000000
v 0.025000 0.042334 1.000000
v 0.049487 0.050000 0.000000
v 0.025045 0.042275 0.000000
v 0.091822 0.024382 0.000000
v 0.073929 0.042275 0.000000
v -0.000000 -0.000000 0.000290
v 0.007153 -0.024501 0.000000
v 0.049487 -0.050000 0.000000
v 0.073929 -0.042394 0.000000
v 0.100000 -0.000000 0.000290
v 0.007153 0.024382 0.000000
v 0.025045 -0.042394 0.000000
v 0.091822 -0.024501 0.000000
vt 0.001540 0.283472
vt 0.001540 0.236485
vt 0.998460 0.236485
vt 0.998460 0.283472
vt 0.001540 0.377446
vt 0.001540 0.330459
vt 0.998460 0.330459
vt 0.998460 0.377447
vt 0.001540 0.142511
vt 0.001540 0.095524
vt 0.998460 0.095523
vt 0.998460 0.142510
vt 0.001540 0.565395
vt 0.001540 0.518408
vt 0.998460 0.518408
vt 0.998460 0.565395
vt 0.001540 0.424433
vt 0.998460 0.424434
vt 0.001540 0.189498
vt 0.998460 0.189498
vt 0.001540 0.048537
vt 0.001540 0.001550
vt 0.998460 0.001549
vt 0.998460 0.048536
vt 0.001540 0.471421
vt 0.998460 0.471421
vn 0.0036 1.0000 0.0000
vn -0.5162 0.8565 -0.0000
vn 0.0038 1.0000 0.0000
vn 0.8497 0.5272 -0.0000
vn 0.5200 0.8542 -0.0000
vn 0.8502 0.5265 -0.0000
vn -1.0000 0.0003 -0.0001
vn -0.8602 -0.5100 -0.0000
vn -0.8607 -0.5091 -0.0000
vn 0.0025 -1.0000 -0.0000
vn 0.5188 -0.8549 -0.0001
vn 0.0027 -1.0000 -0.0000
vn 1.0000 0.0007 0.0000
vn -0.8600 0.5102 -0.0001
vn -0.8605 0.5094 -0.0001
vn -0.5160 -0.8566 0.0000
vn 0.8501 -0.5266 0.0000
vn 0.8505 -0.5259 0.0000
usemtl None
s 1
f 13/1/1 14/2/2 12/3/2 1/4/3
f 15/5/4 16/6/5 2/7/5 3/8/6
f 17/9/7 18/10/8 9/11/9 10/12/7
f 19/13/10 20/14/11 6/15/11 7/16/12
f 21/17/13 15/5/4 3/8/6 4/18/13
f 22/19/14 17/9/7 10/12/7 11/20/15
f 23/21/16 19/22/10 7/23/12 8/24/16
f 24/25/17 21/17/13 4/18/13 5/26/18
f 14/2/2 22/19/14 11/20/15 12/3/2
f 16/6/5 13/1/1 1/4/3 2/7/5
f 18/10/8 23/21/16 8/24/16 9/11/9
f 20/14/11 24/25/17 5/26/18 6/15/11
o st_pipe_angle_Cylinder.013
v 0.050000 -0.050000 1.000000
v 0.025000 -0.042275 1.000000
v 0.007000 -0.024383 1.000000
v -0.000000 0.000000 1.000000
v 0.007000 0.024501 1.000000
v 0.025000 0.042394 1.000000
v 0.050000 0.050012 1.000000
v 0.073929 0.042394 1.000000
v 0.091822 0.024501 1.000000
v 0.100000 0.000059 1.000000
v 0.091821 -0.024383 1.000000
v 0.073929 -0.042275 1.000000
v 0.100000 -0.049985 1.051256
v 0.100000 -0.042275 1.075697
v 0.100000 -0.024383 1.093590
v 0.100000 0.000059 1.100139
v 0.100000 0.024501 1.093590
v 0.100000 0.042394 1.075697
v 0.100000 0.050012 1.051256
v 0.100000 0.042394 1.026814
v 0.100000 0.024501 1.008921
v 0.100000 -0.024383 1.008921
v 0.100000 -0.042275 1.026814
v 0.096676 0.024501 1.007193
v 0.094616 0.024501 1.004275
v 0.082688 0.042394 1.010239
v 0.090712 0.042394 1.019122
v 0.061760 0.042394 1.060532
v 0.037442 0.042394 1.035355
v 0.017076 0.024501 1.045154
v 0.047359 0.024501 1.076296
v 0.077578 -0.049985 1.040019
v 0.061407 -0.049985 1.022989
v 0.082688 -0.042275 1.010239
v 0.090712 -0.042275 1.019122
v 0.047358 -0.024383 1.076296
v 0.017076 -0.024383 1.045154
v 0.037442 -0.042275 1.035355
v 0.061760 -0.042275 1.060532
v 0.077578 0.050012 1.040019
v 0.061407 0.050012 1.022989
v 0.045175 0.000059 1.080662
v 0.012053 -0.000000 1.047669
v 0.096676 -0.024383 1.007193
v 0.094616 -0.024383 1.004275
vt 0.050074 0.815550
vt 0.094520 0.801575
vt 0.107315 0.823060
vt 0.054277 0.821739
vt 0.190005 0.768537
vt 0.230316 0.746548
vt 0.263232 0.840245
vt 0.211779 0.842120
vt 0.385648 0.669567
vt 0.427621 0.638631
vt 0.436730 0.661922
vt 0.414280 0.710456
vt 0.300822 0.712058
vt 0.342926 0.693734
vt 0.387649 0.756092
vt 0.354583 0.795560
vt 0.003749 0.840003
vt 0.144704 0.787429
vt 0.159407 0.835129
vt 0.266859 0.731941
vt 0.311787 0.823790
vt 0.465940 0.612119
vt 0.514199 0.592837
vt 0.468246 0.619237
vt 0.301386 0.569687
vt 0.355889 0.578018
vt 0.367228 0.627189
vt 0.316814 0.638690
vt 0.408297 0.592656
vt 0.461163 0.597926
vt 0.463572 0.605012
vt 0.418119 0.615762
vt 0.154717 0.619993
vt 0.198453 0.592102
vt 0.235374 0.667578
vt 0.201282 0.686570
vt 0.070089 0.758101
vt 0.090699 0.707745
vt 0.122557 0.746877
vt 0.082300 0.780037
vt 0.513685 0.590556
vt 0.247317 0.574694
vt 0.271294 0.652321
vt 0.117576 0.659604
vt 0.162580 0.714138
vt 0.002189 0.838259
vt 0.041803 0.803069
vt 0.045917 0.809320
vn 0.5938 0.4635 -0.6576
vn 0.3803 0.8202 -0.4274
vn 0.2766 0.8699 -0.4083
vn 0.4672 0.4889 -0.7367
vn -0.2716 0.8609 0.4303
vn -0.4717 0.4895 0.7334
vn -0.2914 0.4610 0.8382
vn -0.1952 0.8305 0.5217
vn -0.0054 -0.9997 0.0258
vn 0.3812 -0.8191 -0.4286
vn 0.2777 -0.8687 -0.4102
vn -0.0209 -0.9960 0.0865
vn -0.4716 -0.4896 0.7334
vn -0.2723 -0.8601 0.4313
vn -0.1957 -0.8298 0.5227
vn -0.2914 -0.4610 0.8382
vn 0.7075 0.2882 -0.6453
vn -0.0054 0.9997 0.0255
vn -0.0207 0.9961 0.0855
vn -0.5295 -0.0000 0.8483
vn -0.3237 -0.0000 0.9461
vn 0.5938 -0.4635 -0.6576
vn 0.7075 -0.2882 -0.6453
vn 0.4672 -0.4889 -0.7367
vn -0.5053 -0.8487 0.1561
vn -0.0784 -0.9969 0.0117
vn -0.0164 -0.9999 0.0017
vn -0.4260 -0.8684 0.2537
vn 0.4062 -0.8677 -0.2865
vn 0.7123 -0.4730 -0.5186
vn 0.7212 -0.4376 -0.5370
vn 0.4556 -0.8107 -0.3678
vn -0.8415 0.4963 0.2136
vn -0.9727 -0.0005 0.2319
vn -0.8746 -0.0005 0.4848
vn -0.7561 0.5001 0.4222
vn 0.4040 0.8690 -0.2855
vn -0.0776 0.9969 0.0113
vn -0.0162 0.9999 0.0015
vn 0.4543 0.8117 -0.3670
vn -0.8412 -0.4968 0.2135
vn -0.7559 -0.5005 0.4221
vn -0.5042 0.8495 0.1556
vn -0.4250 0.8691 0.2530
vn 0.7123 0.4730 -0.5186
vn 0.7212 0.4376 -0.5370
usemtl None
s 1
f 48/27/19 51/28/20 44/29/21 45/30/22
f 52/31/23 55/32/24 41/33/25 42/34/26
f 56/35/27 59/36/28 47/37/29 37/38/30
f 60/39/31 63/40/32 38/41/33 39/42/34
f 34/43/35 48/27/19 45/30/22
f 64/44/36 52/31/23 42/34/26 43/45/37
f 66/46/38 60/39/31 39/42/34 40/47/39
f 68/48/40 34/49/41 46/50/42
f 51/28/20 64/44/36 43/45/37 44/29/21
f 55/32/24 66/46/38 40/47/39 41/33/25
f 59/36/28 68/48/40 46/50/42 47/37/29
f 63/40/32 56/35/27 37/38/30 38/41/33
f 26/51/43 25/52/44 57/53/45 62/54/46
f 62/54/46 57/53/45 56/35/27 63/40/32
f 36/55/47 35/56/48 69/57/49 58/58/50
f 58/58/50 69/57/49 68/48/40 59/36/28
f 29/59/51 28/60/52 67/61/53 54/62/54
f 54/62/54 67/61/53 66/46/38 55/32/24
f 32/63/55 31/64/56 65/65/57 50/66/58
f 50/66/58 65/65/57 64/44/36 51/28/20
f 35/56/48 34/67/41 69/57/49
f 69/57/49 34/67/41 68/48/40
f 28/60/52 27/68/59 61/69/60 67/61/53
f 67/61/53 61/69/60 60/39/31 66/46/38
f 31/64/56 30/70/61 53/71/62 65/65/57
f 65/65/57 53/71/62 52/31/23 64/44/36
f 34/72/35 33/73/63 49/74/64
f 34/43/35 49/74/64 48/27/19
f 27/68/59 26/51/43 62/54/46 61/69/60
f 61/69/60 62/54/46 63/40/32 60/39/31
f 25/52/44 36/55/47 58/58/50 57/53/45
f 57/53/45 58/58/50 59/36/28 56/35/27
f 30/70/61 29/59/51 54/62/54 53/71/62
f 53/71/62 54/62/54 55/32/24 52/31/23
f 33/73/63 32/63/55 50/66/58 49/74/64
f 49/74/64 50/66/58 51/28/20 48/27/19
